<svg xmlns="http://www.w3.org/2000/svg" version="1.1" xmlns:xlink="http://www.w3.org/1999/xlink" xmlns:svgjs="http://svgjs.com/svgjs" width="316" height="274"><svg width="316" height="274" viewBox="0 0 316 274" fill="none" xmlns="http://www.w3.org/2000/svg">
<path fill-rule="evenodd" clip-rule="evenodd" d="M309.734 39.6209C304.547 28.7418 296.435 19.5207 286.306 12.9894C276.167 6.47653 264.411 2.9239 252.362 2.73162C240.314 2.55878 228.457 5.75283 218.126 11.954C201.122 4.30959 182.728 0.245124 164.086 0.013484C145.449 -0.248868 126.957 3.31965 109.756 10.4978C92.2381 3.77649 72.9289 3.35326 55.1337 9.30054C37.3377 15.264 22.169 27.2297 12.2257 43.148C2.30451 59.0806 -1.76795 77.9673 0.705953 96.5727C3.19237 115.175 12.0694 132.334 25.8165 145.111C26.9135 163.682 31.8031 181.83 40.1839 198.439C48.5589 215.059 60.2422 229.793 74.5167 241.735C88.7482 253.663 105.265 262.56 123.055 267.881C140.876 273.199 159.596 274.818 178.065 272.638C196.538 270.466 214.374 264.553 230.487 255.261C246.635 245.985 260.718 233.509 271.874 218.598C282.987 203.643 290.926 186.575 295.205 168.442C299.508 150.344 300.059 131.556 296.823 113.237C307.308 102.88 313.931 89.2453 315.591 74.6009C316.934 62.623 314.906 50.508 309.734 39.6209ZM30.4115 100.52C28.4496 93.8259 27.8445 86.807 28.6317 79.8754C29.9211 68.6268 34.8265 58.1005 42.6108 49.8786C50.3823 41.6747 60.5981 36.2037 71.7338 34.2817C79.9903 32.9033 88.457 33.5247 96.4237 36.0938C104.377 38.6681 111.599 43.1059 117.489 49.0373C123.37 54.9979 127.721 62.2917 130.174 70.2972C132.658 78.286 133.169 86.7577 131.663 94.987C130.18 103.237 126.728 111.008 121.599 117.638C116.456 124.263 109.798 129.557 102.184 133.074C94.5906 136.577 86.2681 138.208 77.9144 137.83C69.5485 137.456 61.3983 135.057 54.1629 130.841C42.6939 124.104 34.2061 113.269 30.4115 100.52ZM269.479 148.8C266.211 177.255 251.808 203.258 229.419 221.122C207.033 238.986 178.474 247.237 150.01 244.065C128.189 241.566 107.646 232.48 91.1169 218.016C74.545 203.535 62.7826 184.344 57.3988 163.006C74.3482 168.002 92.4689 167.297 108.979 160.999C125.494 154.723 139.49 143.195 148.813 128.187C158.168 113.201 162.341 95.5557 160.689 77.9663C159.012 60.4172 151.649 43.896 139.72 30.9163C151.107 28.4983 162.809 27.9301 174.376 29.2337C181.766 30.1084 189.044 31.757 196.089 34.1522C191.335 42.0488 188.344 50.8793 187.32 60.0394C186.124 70.6386 187.58 81.369 191.559 91.2657C195.514 101.163 201.863 109.924 210.036 116.765C218.208 123.625 227.962 128.341 238.415 130.485C248.858 132.654 259.676 132.198 269.9 129.158C270.361 135.704 270.22 142.279 269.479 148.8ZM285.659 78.5163C284.012 83.6563 281.224 88.3576 277.504 92.2689C273.795 96.1874 269.249 99.2183 264.205 101.135C258.826 103.23 253.017 103.985 247.281 103.336C237.78 102.237 229.101 97.42 223.141 89.939C220.179 86.2145 217.979 81.9425 216.669 77.3673C215.359 72.7921 214.963 68.0035 215.505 63.2753C216.48 54.8524 220.386 47.0407 226.539 41.2064C232.716 35.4123 240.735 31.9758 249.19 31.4987C251.284 31.3743 253.384 31.4285 255.468 31.6606C260.797 32.2034 265.937 33.928 270.515 36.7086C275.069 39.5328 278.938 43.3352 281.841 47.8401C284.731 52.3386 286.588 57.4224 287.277 62.7251C287.92 68.0414 287.379 73.4341 285.691 78.5163H285.659Z" fill="#FF891D"></path>
<path fill-rule="evenodd" clip-rule="evenodd" d="M242.582 176.53C241.194 180.663 238.868 184.418 235.786 187.5C232.686 190.576 228.923 192.901 224.784 194.295C222.227 194.944 219.617 195.366 216.986 195.557H216.144L214.041 195.881C213.527 195.969 213.02 196.088 212.52 196.237L212.261 197.014L211.873 198.211C211.226 200.023 210.87 201.22 210.385 202.838L209.77 204.942C208.674 208.797 206.727 212.357 204.075 215.361C201.395 218.364 198.078 220.729 194.367 222.286C187.413 224.629 179.837 224.306 173.107 221.38C170.597 220.364 168.235 219.014 166.085 217.367C163.982 215.911 161.425 214.131 160.228 214.423C158.68 214.939 157.201 215.645 155.827 216.526L153.983 217.562C150.484 219.536 146.677 220.903 142.722 221.606C140.252 222.006 137.743 222.114 135.247 221.93C128.875 221.626 122.786 219.213 117.935 215.07C111.696 209.376 107.971 201.439 107.58 193.001C107.337 190.104 108.231 187.226 110.072 184.976C111.896 182.712 114.531 181.25 117.417 180.899C118.951 180.713 120.506 180.857 121.98 181.32C123.473 181.772 124.86 182.52 126.057 183.52C127.165 184.412 128.088 185.511 128.775 186.756C129.45 188.051 129.847 189.473 129.94 190.93C129.85 192.522 130.197 194.109 130.945 195.518C131.692 196.927 132.81 198.104 134.179 198.923C137.092 200.152 140.327 199.473 145.667 196.496C148.98 194.336 152.723 192.923 156.636 192.354C160.539 191.796 164.516 192.106 168.286 193.26C172.128 194.696 175.737 196.691 178.996 199.182L179.255 199.376C180.189 199.991 181.216 200.45 182.297 200.735C185.954 201.77 186.407 201.35 187.216 200.573C188.254 199.214 188.923 197.608 189.157 195.913C189.451 194.543 189.829 193.192 190.29 191.869L190.581 191.027C191.845 185.887 194.81 181.326 198.994 178.084C203.726 175.268 209.063 173.626 214.559 173.295H215.4L217.277 173.036C218.203 172.846 219.069 172.435 219.801 171.838C220.521 171.231 221.078 170.452 221.419 169.573C222.163 168.006 222.55 166.293 222.552 164.558C222.539 162.81 222.142 161.086 221.387 159.51C219.875 157.114 219.309 154.242 219.801 151.452C220.251 148.564 221.791 145.958 224.105 144.171C225.444 143.258 226.95 142.62 228.538 142.295C230.116 141.955 231.749 141.955 233.327 142.295C234.741 142.593 236.076 143.189 237.242 144.042C238.399 144.909 239.359 146.012 240.058 147.278C242.632 151.622 244.202 156.486 244.653 161.516C245.102 166.613 244.394 171.745 242.582 176.53Z" fill="#FF891D"></path>
<path fill-rule="evenodd" clip-rule="evenodd" d="M265.338 80.1725C264.467 81.7461 263.294 83.1325 261.886 84.2525C260.478 85.3724 258.864 86.2039 257.134 86.6994C255.405 87.195 253.595 87.3449 251.808 87.1405C250.021 86.9362 248.292 86.3815 246.719 85.5084C245.146 84.639 243.76 83.468 242.64 82.0624C241.521 80.6567 240.689 79.0441 240.194 77.3167C239.698 75.5893 239.548 73.7811 239.752 71.9957C239.956 70.2102 240.51 68.4825 241.383 66.9115C242.25 65.3368 243.42 63.9487 244.825 62.8268C246.23 61.7049 247.842 60.8711 249.569 60.3733C251.297 59.8755 253.106 59.7235 254.892 59.926C256.679 60.1285 258.407 60.6813 259.98 61.5531C261.555 62.4227 262.944 63.5945 264.066 65.0013C265.188 66.4081 266.022 68.0223 266.52 69.7517C267.017 71.4811 267.169 73.2917 266.967 75.0798C266.764 76.8679 266.21 78.5984 265.338 80.1725Z" fill="#FF891D"></path>
<path fill-rule="evenodd" clip-rule="evenodd" d="M88.3321 72.9821C87.0854 75.2454 85.4043 77.2405 83.3853 78.853C81.3662 80.4655 79.0489 81.6638 76.5659 82.3792C74.083 83.0946 71.4833 83.3132 68.9158 83.0222C66.3483 82.7312 63.8634 81.9365 61.6036 80.6835C59.3392 79.4337 57.3434 77.7496 55.7305 75.7277C54.1176 73.7057 52.9192 71.3856 52.2039 68.9C51.4886 66.4144 51.2704 63.8123 51.5618 61.2423C51.8532 58.6723 52.6485 56.1849 53.9021 53.9226C55.1516 51.6621 56.8346 49.6702 58.8549 48.0609C60.8752 46.4516 63.193 45.2566 65.6757 44.5443C68.1584 43.8319 70.7572 43.6162 73.3234 43.9095C75.8896 44.2028 78.3727 44.9994 80.6306 46.2536C82.8939 47.5003 84.889 49.1814 86.5015 51.2004C88.114 53.2195 89.3123 55.5368 90.0278 58.0197C90.7432 60.5027 90.9617 63.1023 90.6707 65.6698C90.3797 68.2373 89.585 70.7222 88.3321 72.9821Z" fill="#FF891D"></path>
</svg><style>@media (prefers-color-scheme: light) { :root { filter: none; } }
</style></svg>