<svg width="10" height="12" viewBox="0 0 10 12" fill="none" xmlns="http://www.w3.org/2000/svg">
<path d="M0.882353 12C0.647059 12 0.441177 11.91 0.264706 11.73C0.0882353 11.55 0 11.34 0 11.1V2.055H0.882353V11.1H7.85294V12H0.882353ZM2.64706 10.2C2.41176 10.2 2.20588 10.11 2.02941 9.93C1.85294 9.75 1.76471 9.54 1.76471 9.3V0.9C1.76471 0.66 1.85294 0.45 2.02941 0.27C2.20588 0.09 2.41176 0 2.64706 0H9.11765C9.35294 0 9.55882 0.09 9.73529 0.27C9.91177 0.45 10 0.66 10 0.9V9.3C10 9.54 9.91177 9.75 9.73529 9.93C9.55882 10.11 9.35294 10.2 9.11765 10.2H2.64706ZM2.64706 9.3H9.11765V0.9H2.64706V9.3ZM2.64706 9.3V0.9V9.3Z" fill="currentColor"/>
</svg>
