<svg width="24" height="23" viewBox="0 0 14 13" fill="none" xmlns="http://www.w3.org/2000/svg">
<path d="M3.65333 0.557758C3.42724 0.557758 3.21343 0.631308 3.01192 0.778407C2.8104 0.925506 2.66541 1.10203 2.57694 1.30796L0.719067 5.57384C0.689578 5.64248 0.682205 5.71358 0.696951 5.78713C0.711694 5.86068 0.719067 5.93178 0.719067 6.00042L0.719067 7.20664C0.719067 7.44199 0.807537 7.64793 0.984478 7.82445C1.16142 8.00097 1.36785 8.08923 1.60377 8.08923L6.01253 8.08923L5.349 11.193L5.349 11.3401C5.349 11.4676 5.36375 11.5755 5.39324 11.6637C5.42273 11.752 5.46696 11.8206 5.52594 11.8697L6.101 12.3257L10.2001 8.08923L13.0459 8.08923L13.0459 8.00097L13.0459 0.557759L3.65333 0.557758Z" fill="currentColor"/>
</svg>
