<svg width="24" height="23" viewBox="0 0 26 26" fill="none" xmlns="http://www.w3.org/2000/svg">
<path d="M25 15.5475L25 15.72L19.4726 15.72L11.5107 24L10.3938 23.1087C10.2792 23.0129 10.1933 22.8787 10.136 22.7062C10.0788 22.5337 10.0501 22.3229 10.0501 22.0737L10.0501 21.7862L11.3389 15.72L2.77566 15.72C2.31742 15.72 1.91647 15.5475 1.57279 15.2025C1.22912 14.8575 1.05728 14.455 1.05728 13.995L1.05728 11.6375C1.05728 11.5033 1.04296 11.3644 1.01432 11.2206C0.985681 11.0769 1 10.9379 1.05728 10.8037L4.66587 2.46625C4.83771 2.06375 5.11933 1.71875 5.51074 1.43125C5.90215 1.14375 6.31743 1 6.75657 1L25 1L25 15.5475ZM25 15.5475L25 1.0575" stroke="currentColor" stroke-width="1"/>
</svg>
