<svg width="25" height="25" viewBox="0 0 25 25" fill="none" xmlns="http://www.w3.org/2000/svg">
<path fill-rule="evenodd" clip-rule="evenodd" d="M0.638033 0.634855C-0.210895 1.48258 -0.211413 2.85812 0.636873 3.70649L9.3366 12.407L6.17011 15.5739L0.635945 21.1081C-0.211556 21.9556 -0.212044 23.3295 0.634855 24.1776C1.48258 25.0265 2.85812 25.0271 3.70649 24.1788L12.4077 15.4784L21.106 24.1775C21.9545 25.026 23.3301 25.026 24.1786 24.1775C25.0271 23.329 25.0271 21.9533 24.1785 21.1049L15.4794 12.4069L24.1775 3.70963C25.026 2.86118 25.026 1.4855 24.1775 0.637011C23.329 -0.211491 21.9533 -0.211445 21.1049 0.637115L12.4076 9.33557L9.24172 6.17011L3.70755 0.635945C2.86005 -0.211556 1.48614 -0.212044 0.638033 0.634855Z" fill="currentColor"/>
</svg>
