<svg width="24" height="24" viewBox="0 0 24 24" fill="none" xmlns="http://www.w3.org/2000/svg">
<path d="M20 0H4C2.93913 0 1.92172 0.42143 1.17157 1.17158C0.421428 1.92172 0 2.93913 0 4V20C0 21.0609 0.421428 22.0783 1.17157 22.8284C1.92172 23.5786 2.93913 24 4 24H20C21.0609 24 22.0783 23.5786 22.8284 22.8284C23.5786 22.0783 24 21.0609 24 20V4C24 2.93913 23.5786 1.92172 22.8284 1.17158C22.0783 0.42143 21.0609 0 20 0ZM4 2.66667H20C20.3536 2.66667 20.6928 2.80714 20.9428 3.05719C21.1929 3.30724 21.3333 3.64638 21.3333 4V15.1467L17.0667 11.5067C16.4056 10.9627 15.5761 10.6653 14.72 10.6653C13.8639 10.6653 13.0344 10.9627 12.3733 11.5067L2.66667 19.6V4C2.66667 3.64638 2.80714 3.30724 3.05719 3.05719C3.30724 2.80714 3.64638 2.66667 4 2.66667Z" fill="currentColor"/>
<path d="M6.66666 9.33333C7.77123 9.33333 8.66667 8.4379 8.66667 7.33333C8.66667 6.22876 7.77123 5.33333 6.66666 5.33333C5.5621 5.33333 4.66666 6.22876 4.66666 7.33333C4.66666 8.4379 5.5621 9.33333 6.66666 9.33333Z" fill="currentColor"/>
</svg>
