<svg width="24" height="23" viewBox="0 0 13 13" fill="none" xmlns="http://www.w3.org/2000/svg">
<path d="M9.58227 12.3255C9.80836 12.3255 10.0222 12.252 10.2237 12.1049C10.4252 11.9578 10.5702 11.7813 10.6587 11.5753L12.5165 7.30946C12.546 7.24082 12.5534 7.16972 12.5386 7.09617C12.5239 7.02262 12.5165 6.95152 12.5165 6.88288V5.67666C12.5165 5.44131 12.4281 5.23537 12.2511 5.05885C12.0742 4.88233 11.8677 4.79407 11.6318 4.79407H7.22307L7.88659 1.69028V1.54318C7.88659 1.4157 7.87185 1.30782 7.84236 1.21956C7.81287 1.1313 7.76863 1.06266 7.70965 1.01362L7.1346 0.557617L3.03549 4.79407H0.189697V4.88233V12.3255H9.58227Z" fill="currentColor"/>
</svg>
