<svg width="24" height="23" viewBox="0 0 26 26" fill="none" xmlns="http://www.w3.org/2000/svg">
<path d="M1 10.4525V10.28H6.52745L14.4893 2L15.6062 2.89125C15.7208 2.98708 15.8067 3.12125 15.864 3.29375C15.9212 3.46625 15.9499 3.67708 15.9499 3.92625V4.21375L14.6611 10.28H23.2243C23.6826 10.28 24.0835 10.4525 24.4272 10.7975C24.7709 11.1425 24.9427 11.545 24.9427 12.005V14.3625C24.9427 14.4967 24.957 14.6356 24.9857 14.7794C25.0143 14.9231 25 15.0621 24.9427 15.1963L21.3341 23.5338C21.1623 23.9362 20.8807 24.2812 20.4893 24.5687C20.0979 24.8562 19.6826 25 19.2434 25H1V10.4525ZM1 10.4525V24.9425" stroke="currentColor" stroke-width="2"/>
</svg>
