<svg width="124" height="21" viewBox="0 0 124 21" fill="none" xmlns="http://www.w3.org/2000/svg">
<path d="M42.8459 8.0013C42.6028 7.77369 42.3168 7.59678 42.0046 7.48091C41.6924 7.36504 41.3602 7.31253 41.0275 7.32644H32.3855C32.2749 7.32644 32.1688 7.37038 32.0906 7.44861C32.0123 7.52683 31.9684 7.63292 31.9684 7.74355V15.2795C31.9684 15.3901 32.0123 15.4962 32.0906 15.5745C32.1688 15.6527 32.2749 15.6966 32.3855 15.6966H41.0322C41.3642 15.711 41.6958 15.6586 42.0073 15.5427C42.3188 15.4268 42.6039 15.2497 42.8459 15.0218C43.0802 14.8003 43.2649 14.5317 43.3877 14.2336C43.5105 13.9355 43.5687 13.6147 43.5582 13.2924V9.73064C43.5681 9.40847 43.5097 9.08785 43.3869 8.78982C43.2641 8.4918 43.0798 8.22308 42.8459 8.0013ZM41.2946 12.9409C41.2987 13.045 41.281 13.1487 41.2427 13.2456C41.2045 13.3424 41.1464 13.4302 41.0724 13.5034C40.9983 13.5766 40.9098 13.6335 40.8125 13.6706C40.7152 13.7077 40.6113 13.7242 40.5073 13.7189H34.6444C34.5338 13.7189 34.4277 13.675 34.3495 13.5967C34.2712 13.5185 34.2273 13.4124 34.2273 13.3018V9.72127C34.2273 9.61065 34.2712 9.50455 34.3495 9.42633C34.4277 9.34811 34.5338 9.30416 34.6444 9.30416H40.0949C40.4143 9.30416 40.7207 9.43106 40.9465 9.65694C41.1724 9.88282 41.2993 10.1892 41.2993 10.5086L41.2946 12.9409Z" fill="currentColor"/>
<path d="M47.5418 13.2784V12.8519C47.5418 12.7413 47.5858 12.6352 47.664 12.5569C47.7422 12.4787 47.8483 12.4348 47.9589 12.4348H54.9887C55.0994 12.4348 55.2055 12.3908 55.2837 12.3126C55.3619 12.2344 55.4059 12.1283 55.4059 12.0177V10.9445C55.4059 10.8338 55.3619 10.7277 55.2837 10.6495C55.2055 10.5713 55.0994 10.5274 54.9887 10.5274H47.9589C47.8483 10.5274 47.7422 10.4834 47.664 10.4052C47.5858 10.327 47.5418 10.2209 47.5418 10.1102V9.69783C47.5418 9.58721 47.5858 9.48111 47.664 9.40289C47.7422 9.32467 47.8483 9.28073 47.9589 9.28073H55.2746C55.3853 9.28073 55.4913 9.23679 55.5696 9.15857C55.6478 9.08034 55.6917 8.97425 55.6917 8.86362V7.7201C55.6917 7.60948 55.6478 7.50339 55.5696 7.42516C55.4913 7.34694 55.3853 7.30301 55.2746 7.30301H45.7187C45.6081 7.30301 45.502 7.34694 45.4238 7.42516C45.3456 7.50339 45.3016 7.60948 45.3016 7.7201V15.2561C45.3016 15.3667 45.3456 15.4728 45.4238 15.551C45.502 15.6292 45.6081 15.6732 45.7187 15.6732H55.3215C55.4321 15.6732 55.5382 15.6292 55.6164 15.551C55.6946 15.4728 55.7386 15.3667 55.7386 15.2561V14.0938C55.7386 13.9832 55.6946 13.8771 55.6164 13.7989C55.5382 13.7207 55.4321 13.6767 55.3215 13.6767H47.9589C47.8515 13.6768 47.7481 13.6355 47.6704 13.5612C47.5927 13.487 47.5467 13.3857 47.5418 13.2784Z" fill="currentColor"/>
<path d="M67.4456 11.2819L67.3472 11.235L67.4363 11.1788C67.7124 11.0344 67.9449 10.8187 68.1097 10.5542C68.2745 10.2897 68.3656 9.98596 68.3736 9.67442V9.45415C68.3851 9.15529 68.3262 8.8579 68.2017 8.58599C68.0771 8.31408 67.8904 8.07527 67.6565 7.88884C67.1108 7.46386 66.4305 7.24927 65.7397 7.28427H57.8429C57.7323 7.28427 57.6262 7.32822 57.5479 7.40644C57.4697 7.48466 57.4258 7.59075 57.4258 7.70137V15.2374C57.4258 15.348 57.4697 15.4541 57.5479 15.5323C57.6262 15.6105 57.7323 15.6544 57.8429 15.6544H66.0256C66.7346 15.69 67.4325 15.4668 67.9893 15.0265C68.2297 14.8225 68.4211 14.5671 68.5493 14.279C68.6775 13.991 68.7391 13.6778 68.7297 13.3627V13.1565C68.7234 12.7525 68.5983 12.3592 68.3699 12.0259C68.1416 11.6925 67.8201 11.4337 67.4456 11.2819ZM59.6847 9.67909C59.6847 9.56847 59.7286 9.46239 59.8069 9.38417C59.8851 9.30595 59.9912 9.262 60.1018 9.262H65.4023C65.9694 9.262 66.0912 9.56663 66.0912 9.8197V10.0493C66.0912 10.4289 65.8616 10.6164 65.4023 10.6164H60.1018C59.9912 10.6164 59.8851 10.5725 59.8069 10.4942C59.7286 10.416 59.6847 10.3099 59.6847 10.1993V9.67909ZM66.4708 13.0722C66.4708 13.4424 66.1849 13.6767 65.721 13.6767H60.0971C59.9865 13.6767 59.8804 13.6328 59.8022 13.5546C59.724 13.4763 59.68 13.3702 59.68 13.2596V12.6879C59.68 12.5772 59.724 12.4711 59.8022 12.3929C59.8804 12.3147 59.9865 12.2708 60.0971 12.2708H65.721C66.3396 12.2708 66.4708 12.5941 66.4708 12.866V13.0722Z" fill="currentColor"/>
<path d="M70.2341 7.7201V15.2561C70.2341 15.3667 70.2781 15.4728 70.3563 15.551C70.4345 15.6292 70.5406 15.6732 70.6512 15.6732H72.0572C72.1678 15.6732 72.2739 15.6292 72.3521 15.551C72.4304 15.4728 72.4743 15.3667 72.4743 15.2561V7.7201C72.4743 7.60948 72.4304 7.50339 72.3521 7.42516C72.2739 7.34694 72.1678 7.30301 72.0572 7.30301H70.6512C70.5406 7.30301 70.4345 7.34694 70.3563 7.42516C70.2781 7.50339 70.2341 7.60948 70.2341 7.7201Z" fill="currentColor"/>
<path d="M76.6875 13.2784V7.7201C76.6875 7.60948 76.6435 7.50339 76.5653 7.42516C76.4871 7.34694 76.381 7.30301 76.2703 7.30301H74.8644C74.7538 7.30301 74.6477 7.34694 74.5694 7.42516C74.4912 7.50339 74.4473 7.60948 74.4473 7.7201V15.2561C74.4473 15.3667 74.4912 15.4728 74.5694 15.551C74.6477 15.6292 74.7538 15.6732 74.8644 15.6732H83.9188C84.0294 15.6732 84.1355 15.6292 84.2137 15.551C84.292 15.4728 84.3359 15.3667 84.3359 15.2561V14.0938C84.3359 13.9832 84.292 13.8771 84.2137 13.7989C84.1355 13.7207 84.0294 13.6767 83.9188 13.6767H77.1186C77.0087 13.6805 76.9018 13.6408 76.8211 13.5662C76.7404 13.4916 76.6923 13.3882 76.6875 13.2784Z" fill="currentColor"/>
<path d="M92.1155 7.30301H90.1753C90.1048 7.30347 90.0357 7.32175 89.9742 7.35617C89.9127 7.39059 89.861 7.44001 89.8238 7.49984L85.0857 15.0311C85.0449 15.0938 85.0219 15.1663 85.0192 15.2411C85.0165 15.3158 85.0341 15.3898 85.0702 15.4553C85.1063 15.5208 85.1595 15.5752 85.2241 15.6127C85.2888 15.6503 85.3624 15.6696 85.4372 15.6685H87.1009C87.1727 15.6688 87.2433 15.6504 87.3058 15.615C87.3682 15.5797 87.4204 15.5287 87.4571 15.467L88.1601 14.2953C88.1968 14.2337 88.2489 14.1826 88.3114 14.1473C88.3739 14.1119 88.4445 14.0935 88.5163 14.0938H93.9902V14.1219L94.8056 15.467C94.8423 15.5287 94.8945 15.5797 94.957 15.615C95.0194 15.6504 95.09 15.6688 95.1618 15.6685H96.8255C96.9003 15.6696 96.9739 15.6503 97.0386 15.6127C97.1032 15.5752 97.1564 15.5208 97.1925 15.4553C97.2286 15.3898 97.2462 15.3158 97.2435 15.2411C97.2408 15.1663 97.2178 15.0938 97.177 15.0311L92.4389 7.49516C92.4038 7.44004 92.3563 7.39394 92.3001 7.36056C92.2439 7.32719 92.1807 7.30747 92.1155 7.30301ZM89.6973 11.7505L90.7752 9.96497C90.8124 9.90388 90.8647 9.85339 90.9271 9.81836C90.9895 9.78332 91.0598 9.76492 91.1314 9.76492C91.2029 9.76492 91.2732 9.78332 91.3356 9.81836C91.398 9.85339 91.4503 9.90388 91.4875 9.96497L92.5842 11.7505C92.6223 11.8137 92.643 11.886 92.6442 11.9598C92.6453 12.0336 92.6268 12.1064 92.5906 12.1707C92.5544 12.2351 92.5017 12.2886 92.438 12.326C92.3743 12.3633 92.3018 12.3831 92.228 12.3832H90.0722C89.9968 12.3865 89.9219 12.3693 89.8555 12.3333C89.7891 12.2974 89.7338 12.2441 89.6953 12.1792C89.6568 12.1142 89.6367 12.0401 89.637 11.9646C89.6374 11.8891 89.6582 11.8151 89.6973 11.7505Z" fill="currentColor"/>
<path d="M107.309 7.7201V12.1161C107.31 12.1971 107.286 12.2764 107.242 12.3443C107.198 12.4123 107.135 12.4659 107.061 12.4987C106.987 12.5315 106.905 12.542 106.825 12.529C106.745 12.516 106.671 12.48 106.611 12.4254L101.17 7.41079C101.094 7.33987 100.993 7.30125 100.889 7.30301H99.0564C98.9458 7.30301 98.8397 7.34694 98.7615 7.42516C98.6832 7.50338 98.6393 7.60948 98.6393 7.7201V15.2561C98.6393 15.3667 98.6832 15.4728 98.7615 15.551C98.8397 15.6292 98.9458 15.6732 99.0564 15.6732H100.462C100.573 15.6732 100.679 15.6292 100.757 15.551C100.836 15.4728 100.879 15.3667 100.879 15.2561V10.8648C100.879 10.7838 100.903 10.7045 100.947 10.6366C100.991 10.5686 101.054 10.515 101.128 10.4822C101.202 10.4494 101.284 10.4388 101.364 10.4519C101.444 10.4649 101.518 10.5009 101.578 10.5555L107.014 15.5654C107.09 15.6363 107.191 15.6749 107.295 15.6732H109.132C109.243 15.6732 109.349 15.6292 109.427 15.551C109.506 15.4728 109.55 15.3667 109.55 15.2561V7.7201C109.55 7.60948 109.506 7.50338 109.427 7.42516C109.349 7.34694 109.243 7.30301 109.132 7.30301H107.727C107.616 7.30301 107.51 7.34694 107.432 7.42516C107.353 7.50338 107.309 7.60948 107.309 7.7201Z" fill="currentColor"/>
<path d="M118.037 7.30301H116.101C116.031 7.30347 115.962 7.32175 115.9 7.35617C115.839 7.39059 115.787 7.44001 115.75 7.49984L111.012 15.0311C110.971 15.0938 110.948 15.1663 110.945 15.2411C110.942 15.3158 110.96 15.3898 110.996 15.4553C111.032 15.5208 111.086 15.5752 111.15 15.6127C111.215 15.6503 111.288 15.6696 111.363 15.6685H113.022C113.094 15.6688 113.165 15.6504 113.227 15.615C113.29 15.5797 113.342 15.5287 113.378 15.467L114.081 14.2953C114.118 14.2337 114.17 14.1826 114.233 14.1473C114.295 14.1119 114.366 14.0935 114.438 14.0938H119.921V14.1219L120.741 15.467C120.778 15.5287 120.83 15.5797 120.892 15.615C120.955 15.6504 121.025 15.6688 121.097 15.6685H122.756C122.831 15.6696 122.905 15.6503 122.969 15.6127C123.034 15.5752 123.087 15.5208 123.123 15.4553C123.159 15.3898 123.177 15.3158 123.174 15.2411C123.171 15.1663 123.149 15.0938 123.108 15.0311L118.37 7.49516C118.334 7.4388 118.285 7.39193 118.227 7.35849C118.169 7.32505 118.104 7.30602 118.037 7.30301ZM115.628 11.7505L116.706 9.96497C116.743 9.90388 116.795 9.85339 116.858 9.81836C116.92 9.78332 116.991 9.76492 117.062 9.76492C117.134 9.76492 117.204 9.78332 117.266 9.81836C117.329 9.85339 117.381 9.90388 117.418 9.96497L118.496 11.7505C118.534 11.8137 118.555 11.886 118.556 11.9598C118.557 12.0336 118.539 12.1064 118.503 12.1707C118.466 12.2351 118.414 12.2886 118.35 12.326C118.286 12.3633 118.214 12.3831 118.14 12.3832H115.984C115.91 12.3831 115.838 12.3633 115.774 12.326C115.71 12.2886 115.658 12.2351 115.622 12.1707C115.585 12.1064 115.567 12.0336 115.568 11.9598C115.569 11.886 115.59 11.8137 115.628 11.7505Z" fill="currentColor"/>
<path fill-rule="evenodd" clip-rule="evenodd" d="M23.4154 6.59534L12.4817 0.643408C12.1421 0.462074 11.763 0.367218 11.378 0.367218C10.993 0.367218 10.6139 0.462074 10.2743 0.643408L0.591897 5.92984C0.412381 6.03039 0.262907 6.17697 0.158869 6.35449C0.0548315 6.532 0 6.73403 0 6.93979C0 7.14555 0.0548315 7.34759 0.158869 7.52511C0.262907 7.70262 0.412381 7.84921 0.591897 7.94976L10.2743 13.2315C10.6122 13.4182 10.992 13.5161 11.378 13.5161C11.764 13.5161 12.1438 13.4182 12.4817 13.2315L21.7189 8.19345V14.9796C21.7189 15.2841 21.8399 15.5761 22.0552 15.7915C22.2705 16.0068 22.5626 16.1278 22.8671 16.1278C23.1716 16.1278 23.4637 16.0068 23.679 15.7915C23.8943 15.5761 24.0153 15.2841 24.0153 14.9796V7.617C24.0171 7.40836 23.9623 7.20314 23.8566 7.02321C23.751 6.84329 23.5985 6.69541 23.4154 6.59534ZM11.3804 10.8367V2.52741L18.9585 6.67969L11.3804 10.8367ZM12.4817 15.5232C12.1438 15.7099 11.764 15.8078 11.378 15.8078C10.992 15.8078 10.6122 15.7099 10.2743 15.5232L3.33822 11.7505V14.9796C3.33934 15.3922 3.45073 15.797 3.66084 16.1522C3.87095 16.5073 4.17216 16.7999 4.53329 16.9995L10.2743 20.1348C10.6122 20.3215 10.992 20.4194 11.378 20.4194C11.764 20.4194 12.1438 20.3215 12.4817 20.1348L18.2227 16.9995C18.5838 16.7999 18.8851 16.5073 19.0952 16.1522C19.3053 15.797 19.4167 15.3922 19.4178 14.9796V11.7505L12.4817 15.5232Z" fill="currentColor"/>
</svg>
