<svg width="180" height="30" viewBox="0 0 458 80" fill="none" xmlns="http://www.w3.org/2000/svg">
<path d="M159.047 26.9222C158.141 26.0799 157.077 25.4266 155.916 25.0005C154.755 24.5744 153.52 24.3841 152.285 24.4406H120.166C119.963 24.4397 119.761 24.4791 119.573 24.5564C119.385 24.6337 119.214 24.7473 119.07 24.8908C118.926 25.0344 118.811 25.2049 118.733 25.3928C118.655 25.5806 118.615 25.782 118.615 25.9854V53.9596C118.617 54.3699 118.781 54.7628 119.071 55.0523C119.362 55.3419 119.756 55.5044 120.166 55.5044H152.285C153.517 55.5612 154.749 55.3709 155.907 54.9447C157.065 54.5185 158.127 53.8651 159.028 53.0228C159.899 52.1996 160.586 51.2012 161.042 50.0932C161.499 48.9853 161.716 47.7931 161.678 46.5954V33.3497C161.714 32.1537 161.499 30.9634 161.046 29.8561C160.593 28.7488 159.912 27.7492 159.047 26.9222ZM153.277 45.2739C153.293 45.6605 153.228 46.0462 153.087 46.4063C152.945 46.7664 152.73 47.093 152.455 47.3652C152.18 47.6373 151.851 47.849 151.489 47.9867C151.128 48.1245 150.742 48.1852 150.355 48.165H128.56C128.15 48.165 127.758 48.0023 127.468 47.7125C127.178 47.4228 127.015 47.0299 127.015 46.6202V33.3124C127.015 33.109 127.054 32.9075 127.131 32.7193C127.208 32.5312 127.322 32.3601 127.466 32.216C127.609 32.0719 127.78 31.9576 127.968 31.8796C128.155 31.8016 128.357 31.7614 128.56 31.7614H148.804C149.99 31.7614 151.128 32.2327 151.967 33.0716C152.806 33.9104 153.277 35.0482 153.277 36.2345V45.2739Z" fill="currentColor"/>
<path d="M176.499 46.6266V45.0321C176.498 44.829 176.537 44.6278 176.615 44.44C176.692 44.2522 176.806 44.0816 176.949 43.938C177.093 43.7944 177.264 43.6806 177.451 43.6032C177.639 43.5259 177.84 43.4865 178.043 43.4873H204.163C204.572 43.4857 204.964 43.3224 205.253 43.0331C205.543 42.7437 205.706 42.3517 205.707 41.9425V37.9409C205.706 37.5317 205.543 37.1397 205.253 36.8503C204.964 36.561 204.572 36.3977 204.163 36.3961H178.043C177.84 36.3969 177.639 36.3575 177.451 36.2801C177.264 36.2028 177.093 36.089 176.949 35.9454C176.806 35.8018 176.692 35.6312 176.615 35.4434C176.537 35.2556 176.498 35.0543 176.499 34.8512V33.3126C176.498 33.1092 176.537 32.9077 176.614 32.7195C176.692 32.5314 176.805 32.3604 176.949 32.2162C177.092 32.0721 177.263 31.9578 177.451 31.8798C177.639 31.8018 177.84 31.7616 178.043 31.7616H205.242C205.652 31.7616 206.045 31.5989 206.335 31.3092C206.624 31.0194 206.787 30.6265 206.787 30.2168V25.9608C206.787 25.5511 206.624 25.1581 206.335 24.8684C206.045 24.5787 205.652 24.416 205.242 24.416H169.649C169.446 24.4151 169.245 24.4545 169.057 24.5319C168.869 24.6092 168.699 24.723 168.555 24.8666C168.412 25.0102 168.298 25.1808 168.22 25.3686C168.143 25.5564 168.104 25.7577 168.105 25.9608V53.9598C168.105 54.3695 168.267 54.7625 168.557 55.0522C168.847 55.3419 169.24 55.5046 169.649 55.5046H205.348C205.757 55.503 206.149 55.3397 206.438 55.0504C206.728 54.761 206.891 54.369 206.892 53.9598V49.6976C206.891 49.2884 206.728 48.8964 206.438 48.6071C206.149 48.3177 205.757 48.1544 205.348 48.1528H178.05C177.642 48.1545 177.25 47.995 176.96 47.7091C176.669 47.4233 176.504 47.0341 176.499 46.6266Z" fill="currentColor"/>
<path d="M250.471 39.2686L250.105 39.0949L250.44 38.8901C252.704 37.4446 253.852 35.5585 253.852 33.3065V32.4937C253.897 31.3822 253.678 30.2758 253.215 29.2646C252.751 28.2533 252.055 27.3659 251.184 26.6743C249.36 25.1605 247.021 24.4284 244.062 24.4284H214.778C214.575 24.4276 214.374 24.467 214.186 24.5443C213.999 24.6217 213.828 24.7354 213.684 24.879C213.541 25.0226 213.427 25.1933 213.35 25.3811C213.272 25.5689 213.233 25.7701 213.234 25.9732V53.9599C213.234 54.3696 213.396 54.7625 213.686 55.0522C213.976 55.3419 214.369 55.5047 214.778 55.5047H245.179C248.206 55.5047 250.663 54.7229 252.474 53.1719C253.37 52.4117 254.083 51.4588 254.559 50.3845C255.035 49.3102 255.262 48.1422 255.223 46.9678V46.1985C255.242 43.2454 253.504 40.7017 250.471 39.2686ZM221.628 33.3126C221.628 32.9024 221.79 32.5088 222.08 32.2181C222.369 31.9274 222.762 31.7633 223.173 31.7616H242.895C245.005 31.7616 245.458 32.897 245.458 33.84V34.69C245.458 36.0962 244.604 36.7994 242.895 36.7994H223.173C222.763 36.7977 222.371 36.6344 222.082 36.3451C221.793 36.0557 221.629 35.6637 221.628 35.2545V33.3126ZM246.847 45.9256C246.847 47.3029 245.786 48.1714 244.062 48.1714H223.173C222.763 48.1698 222.371 48.0065 222.082 47.7172C221.793 47.4278 221.629 47.0358 221.628 46.6266V44.4924C221.628 44.2895 221.668 44.0887 221.745 43.9012C221.823 43.7138 221.937 43.5435 222.08 43.4001C222.224 43.2566 222.394 43.1428 222.581 43.0652C222.769 42.9875 222.97 42.9476 223.173 42.9476H244.062C246.363 42.9476 246.847 44.1512 246.847 45.1563V45.9256Z" fill="currentColor"/>
<path d="M260.838 25.9608V53.9598C260.838 54.3695 261 54.7625 261.29 55.0522C261.58 55.3419 261.973 55.5046 262.382 55.5046H267.687C268.096 55.503 268.488 55.3397 268.778 55.0504C269.067 54.761 269.23 54.369 269.232 53.9598V25.9608C269.232 25.5511 269.069 25.1581 268.779 24.8684C268.49 24.5787 268.097 24.416 267.687 24.416H262.382C262.179 24.4151 261.978 24.4545 261.79 24.5319C261.603 24.6092 261.432 24.723 261.288 24.8666C261.145 25.0102 261.031 25.1808 260.954 25.3686C260.876 25.5564 260.837 25.7577 260.838 25.9608Z" fill="currentColor"/>
<path d="M284.822 46.6266V25.9608C284.822 25.7574 284.782 25.556 284.704 25.3682C284.626 25.1803 284.512 25.0098 284.368 24.8662C284.223 24.7227 284.052 24.609 283.864 24.5318C283.676 24.4545 283.475 24.4152 283.271 24.416H277.973C277.77 24.4152 277.568 24.4545 277.38 24.5318C277.192 24.609 277.021 24.7227 276.877 24.8662C276.732 25.0098 276.618 25.1803 276.54 25.3682C276.462 25.556 276.422 25.7574 276.422 25.9608V53.9598C276.424 54.3701 276.588 54.763 276.878 55.0525C277.169 55.3421 277.563 55.5046 277.973 55.5046H311.624C311.827 55.5055 312.029 55.4661 312.217 55.3888C312.405 55.3116 312.576 55.1979 312.72 55.0544C312.864 54.9108 312.979 54.7403 313.057 54.5524C313.135 54.3646 313.175 54.1632 313.175 53.9598V49.6976C313.175 49.2879 313.012 48.895 312.722 48.6053C312.433 48.3156 312.04 48.1528 311.63 48.1528H286.367C285.96 48.1528 285.57 47.9926 285.281 47.7069C284.992 47.4212 284.827 47.0331 284.822 46.6266Z" fill="currentColor"/>
<path d="M342.124 24.416H334.915C334.654 24.416 334.397 24.482 334.168 24.6078C333.939 24.7336 333.746 24.9152 333.606 25.1356L315.968 53.1533C315.82 53.3872 315.738 53.6565 315.73 53.933C315.722 54.2095 315.788 54.4832 315.922 54.7254C316.055 54.9675 316.252 55.1693 316.49 55.3097C316.729 55.45 317 55.5238 317.277 55.5233H323.481C323.747 55.5226 324.009 55.4532 324.24 55.3216C324.472 55.1901 324.666 55.001 324.802 54.7725L327.421 50.4297C327.558 50.2011 327.753 50.0123 327.986 49.8818C328.219 49.7512 328.481 49.6835 328.748 49.6852H349.122L349.191 49.7845L352.225 54.7912C352.363 55.018 352.557 55.2056 352.788 55.336C353.019 55.4663 353.28 55.5351 353.546 55.5356H359.75C360.027 55.5362 360.298 55.4625 360.537 55.3221C360.775 55.1817 360.972 54.9799 361.105 54.7377C361.239 54.4956 361.305 54.2219 361.297 53.9454C361.289 53.6688 361.207 53.3996 361.059 53.1657L343.44 25.148C343.301 24.924 343.107 24.7391 342.877 24.611C342.647 24.4828 342.388 24.4157 342.124 24.416ZM333.178 40.863L337.18 34.2246C337.317 33.9959 337.511 33.8066 337.743 33.6752C337.975 33.5438 338.237 33.4748 338.504 33.4748C338.771 33.4748 339.033 33.5438 339.265 33.6752C339.497 33.8066 339.692 33.9959 339.829 34.2246L343.83 40.863C343.972 41.0973 344.049 41.3651 344.054 41.639C344.058 41.9129 343.989 42.1831 343.855 42.4217C343.72 42.6604 343.525 42.8589 343.288 42.9971C343.052 43.1353 342.783 43.2081 342.509 43.2081H334.499C334.226 43.2081 333.957 43.1353 333.72 42.9971C333.483 42.8589 333.288 42.6604 333.153 42.4217C333.019 42.1831 332.95 41.9129 332.955 41.639C332.959 41.3651 333.036 41.0973 333.178 40.863Z" fill="currentColor"/>
<path d="M398.63 25.9608V42.3085C398.628 42.6083 398.54 42.9012 398.376 43.1519C398.212 43.4026 397.978 43.6003 397.704 43.7211C397.429 43.8418 397.126 43.8805 396.83 43.8324C396.534 43.7843 396.258 43.6515 396.036 43.4501L375.817 24.8378C375.535 24.5737 375.162 24.4272 374.775 24.4284H367.951C367.541 24.4284 367.148 24.5911 366.858 24.8808C366.569 25.1706 366.406 25.5635 366.406 25.9732V53.9598C366.407 54.369 366.571 54.761 366.86 55.0504C367.149 55.3397 367.541 55.503 367.951 55.5046H373.255C373.665 55.5046 374.058 55.3419 374.347 55.0522C374.637 54.7624 374.8 54.3695 374.8 53.9598V37.6431C374.8 37.3426 374.887 37.0487 375.052 36.7972C375.216 36.5457 375.45 36.3476 375.725 36.2271C376 36.1066 376.305 36.069 376.601 36.1188C376.897 36.1687 377.173 36.3038 377.393 36.5077L397.594 55.12C397.88 55.3824 398.254 55.5285 398.642 55.5295H405.467C405.876 55.5278 406.268 55.3645 406.557 55.0752C406.847 54.7858 407.01 54.3938 407.012 53.9846V25.9608C407.012 25.5511 406.849 25.1581 406.559 24.8684C406.269 24.5787 405.876 24.416 405.467 24.416H400.162C399.96 24.4168 399.76 24.4573 399.574 24.5354C399.388 24.6135 399.218 24.7275 399.076 24.871C398.934 25.0144 398.821 25.1845 398.745 25.3715C398.668 25.5585 398.629 25.7587 398.63 25.9608Z" fill="currentColor"/>
<path d="M438.498 24.416H431.308C431.046 24.4154 430.789 24.4812 430.56 24.607C430.331 24.7329 430.138 24.9148 429.998 25.1356L412.385 53.1533C412.237 53.3872 412.155 53.6565 412.147 53.933C412.139 54.2095 412.205 54.4832 412.339 54.7254C412.473 54.9675 412.669 55.1693 412.907 55.3097C413.146 55.45 413.417 55.5238 413.694 55.5233H419.861C420.127 55.5226 420.389 55.4532 420.62 55.3216C420.852 55.1901 421.046 55.001 421.182 54.7725L423.801 50.4297C423.938 50.2011 424.133 50.0123 424.366 49.8818C424.599 49.7512 424.861 49.6835 425.128 49.6852H445.502L445.571 49.7845L448.623 54.7912C448.759 55.0188 448.952 55.2071 449.182 55.3376C449.413 55.4682 449.673 55.5364 449.938 55.5356H456.111C456.39 55.5376 456.664 55.4643 456.904 55.3233C457.145 55.1823 457.342 54.9789 457.476 54.7348C457.611 54.4906 457.676 54.2147 457.666 53.9363C457.657 53.6579 457.572 53.3874 457.421 53.1533L439.807 25.1356C439.667 24.9152 439.474 24.7336 439.245 24.6078C439.016 24.482 438.759 24.416 438.498 24.416ZM429.552 40.863L433.553 34.2246C433.691 33.9959 433.885 33.8067 434.117 33.6752C434.349 33.5438 434.611 33.4748 434.878 33.4748C435.145 33.4748 435.407 33.5438 435.639 33.6752C435.871 33.8067 436.065 33.9959 436.203 34.2246L440.204 40.863C440.344 41.0981 440.42 41.3661 440.423 41.6398C440.426 41.9134 440.356 42.1831 440.222 42.4212C440.087 42.6594 439.891 42.8577 439.655 42.9959C439.419 43.1341 439.15 43.2073 438.877 43.2081H430.873C430.599 43.2081 430.33 43.1353 430.094 42.9971C429.857 42.8589 429.662 42.6604 429.527 42.4217C429.393 42.1831 429.324 41.9129 429.328 41.639C429.333 41.3651 429.41 41.0973 429.552 40.863Z" fill="currentColor"/>
<path d="M89.5682 18.4244C89.5669 14.9866 88.6042 11.6177 86.7888 8.69836C84.9734 5.77899 82.3777 3.42552 79.295 1.90386C76.2123 0.38221 72.7654 -0.246977 69.344 0.0874035C65.9225 0.421784 62.6627 1.70639 59.9329 3.79609C54.8678 2.17912 49.5252 1.61665 44.2344 2.14333C38.9436 2.67 33.8167 4.27465 29.1698 6.85841C23.9876 5.5141 18.4991 6.01563 13.6464 8.27688C8.79375 10.5381 4.87952 14.4181 2.57568 19.2507C0.271832 24.0833 -0.277939 29.5672 1.02074 34.761C2.31942 39.9547 5.38555 44.5345 9.69279 47.714C10.605 52.9421 12.5749 57.929 15.482 62.369C18.389 66.8091 22.172 70.6089 26.5991 73.5356C31.0263 76.4623 36.0043 78.4544 41.2283 79.3897C46.4523 80.3251 51.8123 80.184 56.9799 78.9752C62.1475 77.7663 67.0138 75.5152 71.2809 72.3596C75.5479 69.2041 79.1258 65.2106 81.7953 60.6238C84.4648 56.0369 86.1697 50.9533 86.8056 45.6845C87.4415 40.4156 86.995 35.0725 85.4934 29.9822C88.1349 26.7098 89.5733 22.6299 89.5682 18.4244ZM81.2209 20.4578C80.9152 21.9671 80.2751 23.3886 79.3477 24.618C78.4203 25.8474 77.2292 26.8534 75.8619 27.562C74.4041 28.326 72.7825 28.7243 71.1367 28.7227C68.4075 28.7183 65.7915 27.6317 63.8624 25.7011C61.9334 23.7705 60.8488 21.1536 60.8467 18.4244C60.8525 16.0072 61.7085 13.6691 63.2646 11.8195C64.8208 9.96984 66.978 8.72654 69.3586 8.30726C69.9458 8.20476 70.5406 8.15244 71.1367 8.15085C72.6637 8.14753 74.1723 8.48468 75.5526 9.13772C76.9329 9.79076 78.1503 10.7433 79.1162 11.926C80.0821 13.1087 80.7722 14.4919 81.1363 15.9749C81.5004 17.4579 81.5293 19.0033 81.2209 20.4989V20.4578ZM8.40035 29.1343C8.40488 25.9033 9.4578 22.761 11.4009 20.1795C13.344 17.5981 16.0724 15.717 19.1761 14.8188C21.4722 14.1631 23.8923 14.0695 26.2322 14.5458C28.572 15.0221 30.7629 16.0545 32.6199 17.5556C34.4769 19.0568 35.9454 20.9827 36.9015 23.1708C37.8576 25.3589 38.2732 27.745 38.1132 30.1275C37.9532 32.51 37.2223 34.819 35.9822 36.8596C34.7421 38.9002 33.0293 40.6125 30.9882 41.8519C28.9472 43.0913 26.6379 43.8214 24.2554 43.9806C21.8728 44.1398 19.487 43.7234 17.2992 42.7665C13.8209 41.2264 11.0579 38.4221 9.5693 34.9214C8.79797 33.0896 8.40054 31.122 8.40035 29.1343ZM48.087 71.7762C41.8169 71.7691 35.6975 69.8539 30.5422 66.2852C25.3868 62.7164 21.4397 57.6632 19.2255 51.7971C24.1899 52.6691 29.3034 51.8897 33.7826 49.5783C38.2619 47.2669 41.86 43.551 44.0259 38.9996C46.1919 34.4483 46.8062 29.3124 45.7749 24.3786C44.7435 19.4448 42.1233 14.985 38.3156 11.6824C41.4655 10.6282 44.7654 10.0916 48.087 10.0936C50.2063 10.0899 52.32 10.3106 54.3927 10.7522C53.2939 13.1599 52.7321 15.7778 52.7463 18.4244C52.7489 21.4669 53.5048 24.4613 54.9467 27.1404C56.3886 29.8195 58.4716 32.0998 61.0095 33.7776C63.5475 35.4555 66.4615 36.4787 69.4913 36.7558C72.5211 37.033 75.5724 36.5555 78.3727 35.366C78.7139 37.204 78.8848 39.0696 78.8831 40.9391C78.8722 49.11 75.6232 56.9435 69.8478 62.7235C64.0724 68.5035 56.2415 71.7588 48.0705 71.7762H48.087Z" fill="currentColor"/>
<path d="M68.4363 40.2805C67.9758 40.234 67.5107 40.283 67.0702 40.4247C66.6296 40.5663 66.2231 40.7976 65.8761 41.1037C65.291 41.6631 64.9367 42.4215 64.8834 43.2292C64.8301 44.0369 65.0815 44.8353 65.588 45.4667C65.8554 45.8853 66.0247 46.3589 66.0832 46.8522C66.1416 47.3454 66.0877 47.8455 65.9255 48.315C65.8569 48.5762 65.7226 48.8155 65.5352 49.0101C65.3479 49.2046 65.1138 49.348 64.8553 49.4263C64.6084 49.5004 64.3532 49.558 64.098 49.6239C62.5523 49.9055 61.0961 50.5518 59.8502 51.509C58.7645 52.562 58.0681 53.9521 57.8746 55.4522L57.8252 55.6991C57.7367 56.0874 57.6707 56.4804 57.6276 56.8763C57.6185 57.3664 57.4824 57.8458 57.2325 58.2675C57.0267 58.5145 56.9114 58.6544 55.8412 58.4733C55.5249 58.4311 55.2184 58.3336 54.9357 58.1852L54.8534 58.144C53.8595 57.544 52.7836 57.092 51.6594 56.8022C50.5518 56.5992 49.4133 56.6415 48.3239 56.9259C47.2344 57.2104 46.2206 57.7301 45.3536 58.4486C43.9295 59.4611 43.0404 59.7575 42.1761 59.5023C41.1635 59.206 40.8178 58.0452 40.7108 57.3784C40.6374 56.9682 40.4804 56.5775 40.2496 56.2305C40.0188 55.8835 39.719 55.5877 39.3689 55.3616C38.9996 55.1168 38.5847 54.9491 38.149 54.8685C37.7134 54.7879 37.2659 54.796 36.8335 54.8924C36.029 55.0887 35.3312 55.5875 34.8851 56.2851C34.4389 56.9827 34.2788 57.8254 34.438 58.638C34.8207 61.0186 36.1323 63.1502 38.0847 64.5651C39.5935 65.583 41.397 66.0722 43.2133 65.9563C43.9264 65.9251 44.6335 65.8118 45.3207 65.6187C46.419 65.2926 47.4544 64.7832 48.383 64.1122L48.8687 63.7665C49.2304 63.4738 49.6255 63.225 50.0459 63.0256C50.3752 62.9021 51.1654 63.3302 51.7993 63.676C52.4641 64.0705 53.1783 64.375 53.9232 64.5815C56.3352 65.166 58.4261 65.0096 59.982 64.1534C60.9743 63.5938 61.8288 62.819 62.4827 61.8859C63.1365 60.9529 63.5731 59.8852 63.7605 58.7614L63.8675 58.144C63.9498 57.6666 64.0157 57.3208 64.1391 56.7858L64.2132 56.4318L64.2626 56.2013C64.3997 56.1441 64.5399 56.0947 64.6825 56.0531C64.9706 55.9708 65.2505 55.9049 65.5057 55.8391C66.244 55.7008 66.9686 55.4969 67.6707 55.2299C68.8001 54.7059 69.7925 53.9267 70.5696 52.9539C71.3467 51.9811 71.8873 50.8412 72.1489 49.6239C72.5036 48.229 72.5398 46.7721 72.2548 45.3614C71.9698 43.9506 71.3709 42.622 70.5025 41.4741C70.263 41.1395 69.9547 40.8599 69.5984 40.6541C69.242 40.4482 68.8458 40.3209 68.4363 40.2805Z" fill="currentColor"/>
<path d="M76.3226 22.5987C77.5091 19.7341 76.1488 16.4499 73.2841 15.2634C70.4195 14.0768 67.1353 15.4371 65.9488 18.3018C64.7622 21.1664 66.1225 24.4506 68.9872 25.6371C71.8518 26.8237 75.136 25.4634 76.3226 22.5987Z" fill="currentColor"/>
<path d="M25.1031 25.2542C26.2897 22.3896 24.9293 19.1054 22.0647 17.9189C19.2 16.7323 15.9159 18.0926 14.7293 20.9573C13.5427 23.8219 14.9031 27.1061 17.7677 28.2926C20.6323 29.4792 23.9165 28.1189 25.1031 25.2542Z" fill="currentColor"/>
</svg>
