<svg width="37" height="37" viewBox="0 0 37 37" fill="none" xmlns="http://www.w3.org/2000/svg">
<path d="M16.7702 18.4995C16.7702 18.9918 16.9672 19.4641 17.3179 19.8122C17.6685 20.1604 18.1441 20.356 18.6401 20.356C19.136 20.356 19.6116 20.1604 19.9623 19.8122C20.313 19.4641 20.51 18.9918 20.51 18.4995C20.51 18.0071 20.313 17.5349 19.9623 17.1867C19.6116 16.8385 19.136 16.6429 18.6401 16.6429C18.1441 16.6429 17.6685 16.8385 17.3179 17.1867C16.9672 17.5349 16.7702 18.0071 16.7702 18.4995ZM24.5614 18.4995C24.5614 18.9918 24.7584 19.4641 25.1091 19.8122C25.4598 20.1604 25.9354 20.356 26.4313 20.356C26.9272 20.356 27.4028 20.1604 27.7535 19.8122C28.1042 19.4641 28.3012 18.9918 28.3012 18.4995C28.3012 18.0071 28.1042 17.5349 27.7535 17.1867C27.4028 16.8385 26.9272 16.6429 26.4313 16.6429C25.9354 16.6429 25.4598 16.8385 25.1091 17.1867C24.7584 17.5349 24.5614 18.0071 24.5614 18.4995ZM8.97895 18.4995C8.97895 18.9918 9.17595 19.4641 9.52663 19.8122C9.8773 20.1604 10.3529 20.356 10.8488 20.356C11.3448 20.356 11.8204 20.1604 12.1711 19.8122C12.5217 19.4641 12.7187 18.9918 12.7187 18.4995C12.7187 18.0071 12.5217 17.5349 12.1711 17.1867C11.8204 16.8385 11.3448 16.6429 10.8488 16.6429C10.3529 16.6429 9.8773 16.8385 9.52663 17.1867C9.17595 17.5349 8.97895 18.0071 8.97895 18.4995ZM34.7367 11.785C33.8563 9.70803 32.5942 7.84377 30.9853 6.24252C29.3876 4.65053 27.491 3.38509 25.4029 2.51786C23.2603 1.6244 20.9852 1.17188 18.6401 1.17188H18.5622C16.2014 1.18348 13.9147 1.64761 11.7643 2.5604C9.69402 3.43653 7.81519 4.70422 6.23254 6.2928C4.63923 7.89018 3.38874 9.74671 2.52392 11.816C1.62793 13.9587 1.17603 16.2368 1.18772 18.5807C1.20094 21.2667 1.84098 23.9132 3.05762 26.3123V32.1914C3.05762 32.6632 3.24641 33.1158 3.58247 33.4494C3.91854 33.7831 4.37433 33.9705 4.8496 33.9705H10.7748C13.1913 35.1785 15.8568 35.8139 18.5622 35.827H18.644C20.9774 35.827 23.2408 35.3784 25.3717 34.5004C27.4493 33.6435 29.3389 32.3928 30.9346 30.8183C32.5435 29.2364 33.8096 27.3876 34.6939 25.3261C35.6133 23.1911 36.0807 20.9207 36.0924 18.5768C36.1041 16.2213 35.6444 13.9355 34.7367 11.785ZM28.8505 28.7258C26.1196 31.4101 22.4967 32.8875 18.6401 32.8875H18.5738C16.2248 32.8759 13.8913 32.2958 11.8305 31.2051L11.5033 31.031H6.01828V25.5852L5.84298 25.2603C4.74442 23.2143 4.16007 20.8975 4.14839 18.5652C4.1328 14.7091 5.61703 11.0888 8.34007 8.36205C11.0592 5.63528 14.6938 4.12685 18.5777 4.11138H18.644C20.5918 4.11138 22.4811 4.48655 24.2614 5.22916C25.9989 5.95243 27.5571 6.99286 28.8972 8.32337C30.2334 9.65002 31.2852 11.201 32.0137 12.926C32.7695 14.7129 33.1473 16.6081 33.1395 18.5652C33.1162 22.4175 31.593 26.0261 28.8505 28.7258Z" fill="white" stroke="white" stroke-width="0.5"/>
</svg>
