<svg width="18" height="19" viewBox="0 0 18 19" fill="none" xmlns="http://www.w3.org/2000/svg">
<path d="M17 12.6267C15.4903 13.2335 13.8356 13.3835 12.2413 13.0579C10.6471 12.7323 9.18379 11.9456 8.03322 10.7955C6.88265 9.64534 6.0956 8.18257 5.7699 6.58897C5.44421 4.99537 5.59422 3.34122 6.2013 1.83215C4.41355 2.55197 2.93196 3.87101 2.01051 5.56314C1.08907 7.25527 0.78516 9.21511 1.15089 11.1067C1.51661 12.9983 2.52919 14.7038 4.01505 15.9308C5.5009 17.1579 7.36749 17.8301 9.29482 17.8322C10.9522 17.8322 12.5716 17.3365 13.9448 16.4088C15.318 15.4811 16.382 14.1639 17 12.6267Z" stroke="currentColor" stroke-width="1" stroke-linecap="round" stroke-linejoin="round"/>
</svg>
