<svg width="22" height="22" viewBox="0 0 22 22" fill="none" xmlns="http://www.w3.org/2000/svg">
<path d="M2.73552 19.2645H3.92195L15.8671 7.31943L14.6806 6.133L2.73552 18.0781V19.2645ZM19.9986 5.45286C19.6081 5.84338 18.9749 5.84339 18.5844 5.45286L16.5472 3.41567C16.1567 3.02514 16.1567 2.39198 16.5472 2.00145L16.9726 1.57607C17.2782 1.27047 17.6557 1.11768 18.1051 1.11768C18.5545 1.11768 18.932 1.27047 19.2376 1.57607L20.424 2.76249C20.7296 3.06808 20.8824 3.44558 20.8824 3.89498C20.8824 4.34438 20.7296 4.72188 20.424 5.02747L19.9986 5.45286ZM17.4519 6.58535C17.8424 6.97588 17.8424 7.60904 17.4519 7.99957L4.86198 20.5895C4.67444 20.777 4.42009 20.8824 4.15487 20.8824H2.11768C1.56539 20.8824 1.11768 20.4347 1.11768 19.8824V17.8452C1.11768 17.58 1.22303 17.3256 1.41057 17.1381L14.0005 4.54816C14.391 4.15763 15.0242 4.15763 15.4147 4.54816L17.4519 6.58535ZM15.2738 6.72621L14.6806 6.133L15.8671 7.31943L15.2738 6.72621Z" fill="currentColor"/>
<path d="M15.8671 7.31943L3.92195 19.2645H2.73552V18.0781L14.6806 6.133M15.8671 7.31943L14.6806 6.133M15.8671 7.31943L15.2738 6.72621L14.6806 6.133M16.9726 1.57607L16.5472 2.00145C16.1567 2.39198 16.1567 3.02514 16.5472 3.41567L18.5844 5.45286C18.9749 5.84339 19.6081 5.84338 19.9986 5.45286L20.424 5.02747C20.7296 4.72188 20.8824 4.34438 20.8824 3.89498C20.8824 3.44558 20.7296 3.06808 20.424 2.76249L19.2376 1.57607C18.932 1.27047 18.5545 1.11768 18.1051 1.11768C17.6557 1.11768 17.2782 1.27047 16.9726 1.57607ZM4.86198 20.5895L17.4519 7.99957C17.8424 7.60904 17.8424 6.97588 17.4519 6.58535L15.4147 4.54816C15.0242 4.15764 14.391 4.15763 14.0005 4.54816L1.41057 17.1381C1.22303 17.3256 1.11768 17.58 1.11768 17.8452V19.8824C1.11768 20.4347 1.56539 20.8824 2.11768 20.8824H4.15487C4.42009 20.8824 4.67444 20.777 4.86198 20.5895Z" stroke="currentColor" stroke-width="0.3"/>
</svg>
