<svg width="22" height="22" viewBox="0 0 22 22" fill="none" xmlns="http://www.w3.org/2000/svg">
<path d="M2.73552 19.2645H3.92195L15.8671 7.31939L14.6806 6.13297L2.73552 18.0781V19.2645ZM19.9986 5.45283C19.6081 5.84335 18.9749 5.84335 18.5844 5.45283L16.5472 3.41564C16.1567 3.02511 16.1567 2.39195 16.5472 2.00142L16.9726 1.57604C17.2782 1.27044 17.6557 1.11765 18.1051 1.11765C18.5545 1.11765 18.932 1.27044 19.2376 1.57604L20.424 2.76246C20.7296 3.06805 20.8824 3.44555 20.8824 3.89495C20.8824 4.34435 20.7296 4.72185 20.424 5.02744L19.9986 5.45283ZM17.4519 6.58532C17.8424 6.97585 17.8424 7.60901 17.4519 7.99954L4.86198 20.5895C4.67444 20.777 4.42009 20.8824 4.15487 20.8824H2.11768C1.56539 20.8824 1.11768 20.4346 1.11768 19.8824V17.8452C1.11768 17.5799 1.22303 17.3256 1.41057 17.138L14.0005 4.54813C14.391 4.1576 15.0242 4.1576 15.4147 4.54813L17.4519 6.58532ZM15.2738 6.72618L14.6806 6.13297L15.8671 7.31939L15.2738 6.72618Z" fill="currentColor"/>
<path d="M15.8671 7.31939L3.92195 19.2645H2.73552V18.0781L14.6806 6.13297M15.8671 7.31939L14.6806 6.13297M15.8671 7.31939L15.2738 6.72618L14.6806 6.13297M16.9726 1.57604L16.5472 2.00142C16.1567 2.39195 16.1567 3.02511 16.5472 3.41564L18.5844 5.45283C18.9749 5.84335 19.6081 5.84335 19.9986 5.45283L20.424 5.02744C20.7296 4.72185 20.8824 4.34435 20.8824 3.89495C20.8824 3.44555 20.7296 3.06805 20.424 2.76246L19.2376 1.57604C18.932 1.27044 18.5545 1.11765 18.1051 1.11765C17.6557 1.11765 17.2782 1.27044 16.9726 1.57604ZM4.86198 20.5895L17.4519 7.99954C17.8424 7.60901 17.8424 6.97585 17.4519 6.58532L15.4147 4.54813C15.0242 4.1576 14.391 4.1576 14.0005 4.54813L1.41057 17.138C1.22303 17.3256 1.11768 17.5799 1.11768 17.8452V19.8824C1.11768 20.4346 1.56539 20.8824 2.11768 20.8824H4.15487C4.42009 20.8824 4.67444 20.777 4.86198 20.5895Z" stroke="currentColor" stroke-width="0.3"/>
</svg>
