<svg width="20" height="20" viewBox="0 0 20 20" fill="none" xmlns="http://www.w3.org/2000/svg">
<path d="M1.61785 18.2645H2.80427L14.7494 6.31943L13.563 5.133L1.61785 17.0781V18.2645ZM18.8809 4.45286C18.4904 4.84338 17.8572 4.84339 17.4667 4.45286L15.4295 2.41567C15.039 2.02514 15.039 1.39198 15.4295 1.00145L15.8549 0.576066C16.1605 0.270472 16.538 0.117676 16.9874 0.117676C17.4368 0.117676 17.8143 0.270472 18.1199 0.576066L19.3063 1.76249C19.6119 2.06808 19.7647 2.44558 19.7647 2.89498C19.7647 3.34438 19.6119 3.72188 19.3063 4.02747L18.8809 4.45286ZM16.3342 5.58535C16.7247 5.97588 16.7247 6.60904 16.3342 6.99957L3.7443 19.5895C3.55676 19.777 3.30241 19.8824 3.03719 19.8824H1C0.447715 19.8824 0 19.4347 0 18.8824V16.8452C0 16.58 0.105357 16.3256 0.292893 16.1381L12.8828 3.54816C13.2733 3.15763 13.9065 3.15763 14.297 3.54816L16.3342 5.58535ZM14.1562 5.72621L13.563 5.133L14.7494 6.31943L14.1562 5.72621Z" fill="white"/>
</svg>
